<svg width="120" height="24" viewBox="0 0 120 24" fill="none" xmlns="http://www.w3.org/2000/svg">
<g clip-path="url(#clip0_51_22769)">
<path d="M100.161 23.8154V11.9077C100.161 8.43074 97.2291 6.12305 92.7373 6.12305C88.0895 6.12305 85.2197 8.43074 85.0326 11.7846H89.3996C89.618 10.523 90.7409 9.63074 92.5501 9.63074C94.3593 9.63074 95.4823 10.5538 95.4823 12.1846V13.323L91.084 13.5692C86.717 13.8154 84.2839 15.6615 84.2839 18.8C84.2839 21.9077 86.8106 24.0615 90.1482 24.0615C92.3318 24.0615 94.5153 22.9846 95.4823 21.1384H95.5758V23.7846H100.161V23.8154ZM95.4823 17.4769C95.4823 19.3538 93.7666 20.7077 91.7079 20.7077C90.0859 20.7077 89.0253 19.9077 89.0253 18.6154C89.0253 17.3846 90.0235 16.5846 91.8327 16.4615L95.5135 16.2461V17.4769H95.4823Z" fill="white"/>
<path d="M114.448 18.1537H110.299L118.347 6.49219H113.231L109.831 11.446L106.4 6.49219H101.284L107.273 15.1691L101.284 23.8153H106.4L109.831 18.8614L113.231 23.8153H118.347L114.448 18.1537Z" fill="white"/>
<path d="M75.0195 19.3539C75.0195 22.7385 76.6103 24.0924 80.759 24.0924C81.726 24.0924 82.537 24.0001 83.0361 23.9078V20.4308C82.7554 20.4924 82.2875 20.5231 81.882 20.5231C80.4783 20.5231 79.8232 19.877 79.8232 18.5539V9.96929H83.0673V6.49237H79.8232V1.75391L75.0507 4.03083V6.49237H72.5864V9.96929H75.0507V19.3539H75.0195Z" fill="white"/>
<path d="M60.234 13.8769C60.234 11.6307 61.5753 10.0923 63.7276 10.0923C65.8799 10.0923 66.9405 11.3846 66.9405 13.6615V23.8461H71.713V12.6461C71.713 8.58458 69.5295 6.15381 65.6304 6.15381C62.9478 6.15381 61.0762 7.41535 60.1716 9.56919H60.078V6.49227H55.4614V23.8153H60.234V13.8769Z" fill="white"/>
<path d="M31.4115 23.8153L37.4942 6.49219H32.3785L28.7289 18.3076L25.0793 6.49219H19.9636L26.0775 23.8153H31.4115Z" fill="white"/>
<path d="M7.48627 18.1537L11.5726 4.95373H11.6973L14.7543 14.6768L7.48627 18.1537H15.7525L17.5617 23.8153H22.8021L14.5983 0.492188H8.79638L0.623779 23.8153H5.67707L7.48627 18.1537Z" fill="white"/>
<path d="M45.5421 9.63074C47.3513 9.63074 48.4742 10.5538 48.4742 12.1846V13.323L44.076 13.5692C39.7089 13.8154 37.2759 15.6615 37.2759 18.8C37.2759 21.9077 39.8025 24.0615 43.1402 24.0615C45.3237 24.0615 47.5072 22.9846 48.4742 21.1384H48.5678V23.7846H53.1844V11.9077C53.1844 8.43074 50.2522 6.12305 45.7604 6.12305C41.1126 6.12305 38.2429 8.43074 38.0557 11.7846H42.4227C42.6411 10.523 43.7641 9.63074 45.5421 9.63074ZM48.4742 17.4769C48.4742 19.3538 46.7586 20.7077 44.6999 20.7077C43.0778 20.7077 42.0172 19.9077 42.0172 18.6154C42.0172 17.3846 43.0154 16.5846 44.8246 16.4615L48.5054 16.2461V17.4769H48.4742Z" fill="white"/>
</g>
<defs>
<clipPath id="clip0_51_22769">
<rect width="120" height="24" fill="white"/>
</clipPath>
</defs>
</svg>
